<svg
  style='display:none;'
  xmlns='http://www.w3.org/2000/svg'
  viewBox='0 0 841.9 595.3'
>
<symbol id='arrow_back' viewBox='0 0 48 48'>
<path d="M20 44 0 24 20 4l2.8 2.85L5.65 24 22.8 41.15Z" />
</symbol>

<symbol id='arrow_forward' viewBox='0 0 48 48'>
<path d="m15.2 43.9-2.8-2.85L29.55 23.9 12.4 6.75l2.8-2.85 20 20Z" />
</symbol>

<symbol id='close' viewBox='0 0 48 48'>
<path
      d="m12.45 37.65-2.1-2.1L21.9 24 10.35 12.45l2.1-2.1L24 21.9l11.55-11.55 2.1 2.1L26.1 24l11.55 11.55-2.1 2.1L24 26.1Z"
    />
</symbol>

<symbol id='done' viewBox='0 0 48 48'>
<path d="M18.9 35.7 7.7 24.5l2.15-2.15 9.05 9.05 19.2-19.2 2.15 2.15Z" />
</symbol>

<symbol id='search' viewBox='0 0 48 48'>
<path
      d="M39.8 41.95 26.65 28.8q-1.5 1.3-3.5 2.025-2 .725-4.25.725-5.4 0-9.15-3.75T6 18.75q0-5.3 3.75-9.05 3.75-3.75 9.1-3.75 5.3 0 9.025 3.75 3.725 3.75 3.725 9.05 0 2.15-.7 4.15-.7 2-2.1 3.75L42 39.75Zm-20.95-13.4q4.05 0 6.9-2.875Q28.6 22.8 28.6 18.75t-2.85-6.925Q22.9 8.95 18.85 8.95q-4.1 0-6.975 2.875T9 18.75q0 4.05 2.875 6.925t6.975 2.875Z"
    />
</symbol>

<symbol id='arrow' viewBox="0 0 43 43">
<path
      d="M42.1731 21.5C42.1731 10.0826 32.9174 0.826942 21.5 0.826942C10.0826 0.826942 0.826923 10.0826 0.826923 21.5C0.826923 32.9174 10.0826 42.1731 21.5 42.1731C32.9174 42.1731 42.1731 32.9174 42.1731 21.5Z" stroke="black" stroke-width="1.02"/>
<path d="M15.1716 22.0731H25.6164L21.4843 26.1738L22.3013 26.985L27.8284 21.5L22.3013 16.015L21.4843 16.8262L25.6164 20.9269H15.1716V22.0731Z" fill="black"/>
    
</symbol>

</svg>
